<svg width="200" height="110" viewBox="0 0 200 110" fill="none" xmlns="http://www.w3.org/2000/svg">
<path d="M20.6349 30.2823L24.127 38.4184H17.1429L20.6349 30.2823Z" fill="white"/>
<path d="M101.27 31.154C102.222 31.154 103.175 31.154 103.81 31.4446C104.444 31.7352 105.079 32.3163 104.762 33.4786C104.762 34.3503 104.444 35.2221 103.81 35.5127C103.175 35.8032 102.222 35.8032 101.27 35.8032H94.9207V31.154H101.27Z" fill="white"/>
<path d="M149.524 38.4184H142.222L146.032 30.2823L149.524 38.4184Z" fill="white"/>
<path fill-rule="evenodd" clip-rule="evenodd" d="M171.746 22.7273V26.2142L169.841 22.7273H154.921V26.2142L153.016 22.7273H132.698C129.206 22.7273 126.349 23.3084 123.81 24.4707V22.7273H109.524V24.4707C107.937 23.3084 106.032 22.7273 103.492 22.7273H52.381L48.8889 29.9917L45.3968 22.7273H29.2063V26.2142L27.3016 22.7273H13.6508L7.30159 36.3844L0 51.4944H16.1905L18.0952 46.8452H22.5397L24.4444 51.4944H42.8571V48.0075L44.4444 51.4944H53.6508L55.2381 48.0075V51.4944H99.3651V43.9394H100C100.275 43.9394 100.431 43.9394 100.519 44.0101C100.635 44.1027 100.635 44.3167 100.635 44.8111V51.2038H123.492V49.4603C125.397 50.3321 128.254 51.2038 132.063 51.2038H141.587L143.492 46.5546H147.937L149.841 51.2038H168.254V46.8452L171.111 51.2038H186.032V22.7273H171.746ZM64.4444 47.1357H59.0476V31.154L51.4286 47.1357H46.6667L39.0476 31.154V47.1357H28.254L26.0317 42.7771H15.2381L13.3333 47.4263H7.30159L16.8254 26.7953H24.7619L33.6508 46.264V26.7953H42.2222L49.2064 40.743L55.5556 26.7953H64.4444V47.1357ZM86.0317 31.154H73.6508V34.9315H85.7143V38.9996H73.6508V43.0677H86.0317V47.4263H68.254V26.7953H86.0317V31.154ZM109.841 39.5807C110.476 40.743 110.794 41.6148 110.794 43.3582V47.4263H105.397V44.8111C105.397 43.6488 105.397 41.9053 104.444 40.743C103.492 39.8713 102.54 39.8713 100.635 39.8713H94.9206V47.4263H89.5238V26.7953H101.587C104.444 26.7953 106.349 26.7953 107.937 27.6671C109.524 28.5388 110.476 29.9917 110.476 32.3163C110.476 35.5127 108.254 37.2561 106.667 37.8373C108.254 38.1278 109.206 38.9996 109.841 39.5807ZM119.365 47.1357H113.968V26.5048H119.365V47.1357ZM181.27 47.1357H174.286L164.127 31.7352V47.1357H153.333L151.429 42.7771H140.317L138.413 47.4263H132.381C129.841 47.4263 126.667 46.8452 124.762 45.1017C122.857 43.3582 121.905 41.0336 121.905 37.2561C121.905 34.3504 122.54 31.4446 124.762 29.12C126.349 27.3765 129.206 26.7953 132.698 26.7953H137.778V31.154H132.698C130.794 31.154 129.841 31.4446 128.571 32.3163C127.619 33.188 126.984 34.9315 126.984 36.9655C126.984 39.2902 127.302 40.743 128.571 41.9054C129.524 42.7771 130.794 43.0677 132.381 43.0677H134.603L141.905 27.0859H149.841L158.73 46.5546V27.0859H166.667L175.873 41.3242V27.0859H181.27V47.1357Z" fill="white"/>
<path d="M88.254 63.6986V80.2615L80 71.8348L88.254 63.6986Z" fill="white"/>
<path d="M54.2857 65.7327V69.5102H66.0318V73.5782H54.2857V77.9369H67.3016L73.3333 71.8348L67.6191 65.7327H54.2857Z" fill="white"/>
<path d="M93.6508 65.7327H100.317C102.222 65.7327 103.492 66.6044 103.81 68.3479C103.81 70.0913 102.54 70.9631 100.635 70.9631H93.6508V65.7327Z" fill="white"/>
<path d="M123.492 66.0232C124.445 66.0232 125.397 66.0232 126.032 66.3138C126.667 66.6044 127.302 67.1856 126.984 68.3479C126.984 69.2196 126.667 70.0913 126.032 70.3819C125.397 70.6725 124.444 70.6725 123.492 70.6725H117.143V66.0232H123.492Z" fill="white"/>
<path fill-rule="evenodd" clip-rule="evenodd" d="M198.413 70.6725V57.5965H185.079C182.222 57.5965 180 58.1777 178.413 59.34V57.5965H163.81C161.587 57.5965 158.73 58.1777 157.46 59.34V57.5965H131.746V59.34C129.841 57.8871 126.349 57.5965 124.762 57.5965H107.619V59.34C106.032 57.8871 102.222 57.5965 100.317 57.5965H81.2699L76.8254 61.9552L72.6984 57.5965H44.127V86.0731H72.0635L76.5079 81.7144L80.6349 86.0731H97.7778V79.3898H100C102.222 79.3898 105.079 79.3898 107.302 78.5181V86.3636H121.587V78.8086H122.222C122.698 78.8086 122.937 78.8086 123.056 78.9176C123.175 79.0266 123.175 79.2445 123.175 79.6804V86.3636H166.349C169.206 86.3636 172.064 85.7825 173.651 84.6202V86.3636H187.302C190.159 86.3636 193.016 86.0731 194.921 84.9107C198.095 83.1673 200 79.9709 200 76.1934C200 74.1594 199.365 72.1254 198.413 70.6725ZM100 75.3217H93.6508V82.2955H83.4921L77.1429 75.6123L70.4762 82.2955H49.5238V61.6646H70.7937L77.1429 68.3479L83.8095 61.6646H100.635C104.762 61.6646 109.524 62.8269 109.524 68.3479C109.206 74.1594 104.762 75.3217 100 75.3217ZM131.746 74.1594C132.381 75.0311 132.698 76.1934 132.698 77.9369V82.005H127.302V79.3898C127.302 78.2275 127.302 76.1934 126.349 75.3217C125.714 74.45 124.444 74.45 122.54 74.45H116.825V82.005H111.429V61.374H123.492C126.032 61.374 128.254 61.374 129.841 62.2458C131.429 63.1175 132.698 64.5704 132.698 66.895C132.698 70.0913 130.476 71.8348 128.889 72.4159C130.476 72.9971 131.429 73.5782 131.746 74.1594ZM153.651 65.7327H141.27V69.5102H153.333V73.5782H141.27V77.6463H153.651V82.005H135.873V61.374H153.651V65.7327ZM166.984 82.005H156.825V77.6463H166.984C167.937 77.6463 168.571 77.6463 169.206 77.0652C169.524 76.7746 169.841 76.1934 169.841 75.6123C169.841 75.0311 169.524 74.45 169.206 74.1594C168.889 73.8688 168.254 73.5782 167.302 73.5782C166.883 73.5543 166.458 73.5343 166.031 73.5142C161.27 73.2902 156.191 73.0512 156.191 67.1856C156.191 64.2798 158.095 61.0834 163.81 61.0834H174.286V66.0232H164.444C163.492 66.0232 162.857 66.0232 162.222 66.3138C161.587 66.6044 161.587 67.1856 161.587 67.7667C161.587 68.6384 162.222 68.929 162.857 69.2196C163.492 69.5102 164.127 69.5102 164.762 69.5102H167.619C170.476 69.5102 172.381 70.0913 173.651 71.2536C174.603 72.1254 175.238 73.5782 175.238 75.6123C175.238 79.9709 172.381 82.005 166.984 82.005ZM194.286 79.9709C193.016 81.1332 190.794 82.005 187.619 82.005H177.46V77.6463H187.619C188.571 77.6463 189.206 77.6463 189.841 77.0652C190.159 76.7746 190.476 76.1934 190.476 75.6123C190.476 75.0311 190.159 74.45 189.841 74.1594C189.524 73.8688 188.889 73.5782 187.937 73.5782C187.518 73.5543 187.093 73.5343 186.666 73.5142C181.905 73.2902 176.825 73.0512 176.825 67.1856C176.825 64.2798 178.73 61.0834 184.444 61.0834H194.921V66.0232H185.397C184.444 66.0232 183.81 66.0232 183.175 66.3138C182.54 66.6044 182.54 67.1856 182.54 67.7667C182.54 68.6384 182.857 68.929 183.81 69.2196C184.444 69.5102 185.079 69.5102 185.714 69.5102H188.571C191.429 69.5102 193.333 70.0913 194.603 71.2536C194.921 71.2536 194.921 71.5442 194.921 71.5442C195.873 72.7065 196.191 74.1594 196.191 75.6123C196.191 77.3557 195.556 78.8086 194.286 79.9709Z" fill="white"/>
</svg>
